<svg xlink="http://www.w3.org/1999/xlink" viewBox="0 0 5000 5000" xmlns="http://www.w3.org/2000/svg" style="transform: scale(1);"><defs><filter id="goo"><feGaussianBlur in="SourceGraphic" stdDeviation="0" result="blur"></feGaussianBlur><feColorMatrix in="blur" type="matrix" values="1 0 0 0 0 0 1 0 0 0 0 0 1 0 0 0 0 0 19 -9" result="good"></feColorMatrix><feComposite in="SourceGraphic" in2="goo" operator="atop"></feComposite></filter><path d="M269,268Q255,289 236,272Q211,252 235,229C244,238 247,237 250,224C270,229 279,248 269,268z" id="P0"></path><path d="M242,242L260,246L261,248L250,261L242,242z" id="P1"></path><path d="M247,223C263,223 275,234 277,250Q274,283 242,276L224,258C236,246 240,239 247,223z" id="P2"></path><path d="M236,260L246,234L267,250L266,255L236,260z" id="P3"></path><path d="M272,268Q261,292 236,275C236,257 234,247 229,230L272,232C265,246 265,253 272,268z" id="P4"></path><path d="M234,251L246,235L262,239L264,259L234,251z" id="P5"></path><path d="M228,281C207,253 220,218 255,212L287,243C269,258 262,267 252,288Q232,304 228,281z" id="P6"></path><path d="M265,247L243,263L235,251L246,235L265,247z" id="P7"></path><path d="M259,232L264,265Q257,279 246,270C235,266 229,255 231,245C243,242 248,239 259,232z" id="P8"></path><path d="M237,257L243,237L260,261L246,265L237,257z" id="P9"></path><path d="M252,220C260,237 265,244 279,257C271,275 252,283 234,275C235,256 234,246 231,227Q236,207 252,220z" id="P10"></path><path d="M236,241L266,253L247,266L235,246L236,241z" id="P11"></path><path d="M241,223C252,220 263,223 270,231Q291,258 262,275C250,265 244,264 227,266C235,250 238,241 241,223z" id="P12"></path><path d="M262,251L241,258L241,242L248,238L262,251z" id="P13"></path></defs><rect id="RECT" width="5000" height="5000" fill="#FFFFFF"></rect><g id="group" fill="#F4F1F1" filter=""><use x="-637" y="-645" href="#P2"></use><use x="-723" y="-426" href="#P13"></use><use x="-660" y="-322" href="#P9"></use><use x="-756" y="-53" href="#P5"></use><use x="-775" y="93" href="#P4"></use><use x="-874" y="344" href="#P10"></use><use x="-982" y="599" href="#P3"></use><use x="-990" y="902" href="#P13"></use><use x="-1086" y="1168" href="#P13"></use><use x="-1000" y="1419" href="#P5"></use><use x="-1030" y="1512" href="#P8"></use><use x="-1165" y="2022" href="#P10"></use><use x="-1169" y="2055" href="#P7"></use><use x="-1177" y="2441" href="#P13"></use><use x="-1022" y="2722" href="#P13"></use><use x="-1148" y="2974" href="#P10"></use><use x="-975" y="3141" href="#P6"></use><use x="-988" y="3511" href="#P12"></use><use x="-1122" y="3737" href="#P8"></use><use x="-956" y="4132" href="#P3"></use><use x="-998" y="4169" href="#P7"></use><use x="-903" y="4609" href="#P4"></use><use x="-842" y="4700" href="#P13"></use><use x="-826" y="4904" href="#P6"></use><use x="-732" y="5249" href="#P4"></use><use x="-818" y="5277" href="#P2"></use><use x="-628" y="5624" href="#P11"></use><use x="-682" y="5653" href="#P8"></use><use x="-484" y="-762" href="#P11"></use><use x="-487" y="-441" href="#P13"></use><use x="-515" y="-403" href="#P6"></use><use x="-532" y="-137" href="#P7"></use><use x="-729" y="98" href="#P5"></use><use x="-758" y="368" href="#P3"></use><use x="-822" y="631" href="#P7"></use><use x="-788" y="788" href="#P7"></use><use x="-847" y="1166" href="#P4"></use><use x="-899" y="1286" href="#P12"></use><use x="-902" y="1633" href="#P2"></use><use x="-807" y="1940" href="#P11"></use><use x="-973" y="2204" href="#P12"></use><use x="-826" y="2433" href="#P4"></use><use x="-836" y="2606" href="#P3"></use><use x="-796" y="2899" href="#P12"></use><use x="-939" y="3200" href="#P0"></use><use x="-925" y="3565" href="#P13"></use><use x="-914" y="3812" href="#P8"></use><use x="-679" y="4155" href="#P11"></use><use x="-849" y="4249" href="#P1"></use><use x="-788" y="4500" href="#P4"></use><use x="-693" y="4769" href="#P9"></use><use x="-526" y="5092" href="#P4"></use><use x="-606" y="5166" href="#P11"></use><use x="-475" y="5474" href="#P7"></use><use x="-544" y="5582" href="#P3"></use><use x="-399" y="5883" href="#P13"></use><use x="-317" y="-781" href="#P3"></use><use x="-291" y="-506" href="#P11"></use><use x="-319" y="-324" href="#P8"></use><use x="-467" y="-200" href="#P9"></use><use x="-479" y="6" href="#P8"></use><use x="-523" y="244" href="#P7"></use><use x="-448" y="548" href="#P5"></use><use x="-566" y="824" href="#P3"></use><use x="-580" y="963" href="#P0"></use><use x="-657" y="1335" href="#P11"></use><use x="-651" y="1637" href="#P13"></use><use x="-567" y="1938" href="#P1"></use><use x="-620" y="2212" href="#P10"></use><use x="-726" y="2463" href="#P8"></use><use x="-744" y="2720" href="#P7"></use><use x="-559" y="2984" href="#P2"></use><use x="-632" y="3398" href="#P9"></use><use x="-526" y="3504" href="#P13"></use><use x="-653" y="3812" href="#P9"></use><use x="-650" y="3966" href="#P9"></use><use x="-619" y="4451" href="#P5"></use><use x="-512" y="4624" href="#P9"></use><use x="-501" y="4888" href="#P6"></use><use x="-457" y="4939" href="#P7"></use><use x="-427" y="5296" href="#P11"></use><use x="-374" y="5487" href="#P6"></use><use x="-217" y="5671" href="#P7"></use><use x="-231" y="5782" href="#P0"></use><use x="-83" y="-806" href="#P5"></use><use x="-104" y="-648" href="#P13"></use><use x="-36" y="-470" href="#P4"></use><use x="-124" y="-113" href="#P13"></use><use x="-159" y="-72" href="#P6"></use><use x="-187" y="207" href="#P7"></use><use x="-254" y="369" href="#P6"></use><use x="-432" y="900" href="#P7"></use><use x="-304" y="988" href="#P3"></use><use x="-366" y="1293" href="#P3"></use><use x="-420" y="1609" href="#P2"></use><use x="-507" y="1892" href="#P6"></use><use x="-533" y="2090" href="#P6"></use><use x="-369" y="2439" href="#P0"></use><use x="-480" y="2763" href="#P7"></use><use x="-452" y="2966" href="#P0"></use><use x="-377" y="3185" href="#P3"></use><use x="-377" y="3639" href="#P10"></use><use x="-402" y="3851" href="#P10"></use><use x="-393" y="4187" href="#P3"></use><use x="-239" y="4460" href="#P5"></use><use x="-405" y="4501" href="#P7"></use><use x="-341" y="4858" href="#P9"></use><use x="-97" y="5125" href="#P12"></use><use x="-49" y="5395" href="#P3"></use><use x="-119" y="5437" href="#P0"></use><use x="-107" y="5767" href="#P13"></use><use x="-136" y="5802" href="#P10"></use><use x="274" y="-873" href="#P4"></use><use x="133" y="-661" href="#P5"></use><use x="61" y="-533" href="#P11"></use><use x="123" y="-330" href="#P4"></use><use x="44" y="1" href="#P7"></use><use x="53" y="315" href="#P0"></use><use x="-18" y="532" href="#P11"></use><use x="-1" y="688" href="#P6"></use><use x="-50" y="887" href="#P2"></use><use x="-104" y="1199" href="#P1"></use><use x="-146" y="1409" href="#P2"></use><use x="-296" y="1827" href="#P0"></use><use x="-160" y="2250" href="#P7"></use><use x="-302" y="2323" href="#P8"></use><use x="-319" y="2671" href="#P8"></use><use x="-219" y="3087" href="#P7"></use><use x="-254" y="3399" href="#P3"></use><use x="-159" y="3603" href="#P7"></use><use x="-140" y="3779" href="#P7"></use><use x="-169" y="4215" href="#P3"></use><use x="-161" y="4389" href="#P11"></use><use x="-30" y="4674" href="#P0"></use><use x="-10" y="4976" href="#P0"></use><use x="-69" y="5092" href="#P1"></use><use x="169" y="5448" href="#P5"></use><use x="161" y="5614" href="#P10"></use><use x="92" y="5761" href="#P2"></use><use x="194" y="5913" href="#P7"></use><use x="338" y="-941" href="#P7"></use><use x="401" y="-667" href="#P13"></use><use x="216" y="-527" href="#P3"></use><use x="342" y="-206" href="#P3"></use><use x="296" y="-166" href="#P3"></use><use x="278" y="89" href="#P5"></use><use x="72" y="479" href="#P4"></use><use x="263" y="814" href="#P10"></use><use x="255" y="827" href="#P3"></use><use x="122" y="1347" href="#P13"></use><use x="67" y="1481" href="#P5"></use><use x="85" y="1887" href="#P2"></use><use x="126" y="2121" href="#P8"></use><use x="28" y="2407" href="#P5"></use><use x="123" y="2668" href="#P12"></use><use x="76" y="3127" href="#P11"></use><use x="97" y="3236" href="#P3"></use><use x="168" y="3609" href="#P12"></use><use x="242" y="4013" href="#P4"></use><use x="203" y="4273" href="#P11"></use><use x="255" y="4552" href="#P10"></use><use x="220" y="4825" href="#P9"></use><use x="340" y="4841" href="#P10"></use><use x="260" y="5129" href="#P2"></use><use x="351" y="5487" href="#P9"></use><use x="244" y="5615" href="#P7"></use><use x="270" y="5761" href="#P3"></use><use x="542" y="6045" href="#P0"></use><use x="695" y="-897" href="#P0"></use><use x="556" y="-779" href="#P4"></use><use x="671" y="-629" href="#P8"></use><use x="434" y="-287" href="#P7"></use><use x="557" y="6" href="#P12"></use><use x="398" y="100" href="#P8"></use><use x="551" y="437" href="#P1"></use><use x="348" y="580" href="#P6"></use><use x="355" y="869" href="#P6"></use><use x="366" y="1251" href="#P1"></use><use x="288" y="1494" href="#P1"></use><use x="410" y="1859" href="#P12"></use><use x="362" y="2178" href="#P3"></use><use x="344" y="2397" href="#P10"></use><use x="261" y="2725" href="#P8"></use><use x="288" y="3123" href="#P7"></use><use x="381" y="3215" href="#P6"></use><use x="294" y="3546" href="#P6"></use><use x="351" y="3902" href="#P10"></use><use x="421" y="4217" href="#P12"></use><use x="363" y="4493" href="#P12"></use><use x="359" y="4692" href="#P3"></use><use x="552" y="4952" href="#P1"></use><use x="401" y="5267" href="#P12"></use><use x="671" y="5476" href="#P6"></use><use x="465" y="5577" href="#P13"></use><use x="550" y="5858" href="#P4"></use><use x="725" y="6076" href="#P4"></use><use x="940" y="-1000" href="#P5"></use><use x="867" y="-841" href="#P8"></use><use x="845" y="-631" href="#P6"></use><use x="728" y="-439" href="#P7"></use><use x="807" y="-103" href="#P9"></use><use x="641" y="135" href="#P1"></use><use x="596" y="275" href="#P12"></use><use x="657" y="609" href="#P7"></use><use x="540" y="1028" href="#P13"></use><use x="548" y="1133" href="#P10"></use><use x="492" y="1386" href="#P7"></use><use x="604" y="1897" href="#P12"></use><use x="636" y="2268" href="#P10"></use><use x="522" y="2528" href="#P7"></use><use x="449" y="2647" href="#P0"></use><use x="564" y="3194" href="#P6"></use><use x="642" y="3481" href="#P6"></use><use x="726" y="3684" href="#P6"></use><use x="546" y="3906" href="#P13"></use><use x="714" y="4149" href="#P13"></use><use x="708" y="4389" href="#P2"></use><use x="802" y="4664" href="#P10"></use><use x="678" y="5073" href="#P9"></use><use x="728" y="5294" href="#P4"></use><use x="922" y="5390" href="#P6"></use><use x="758" y="5728" href="#P2"></use><use x="946" y="5945" href="#P8"></use><use x="849" y="6053" href="#P0"></use><use x="1282" y="-1024" href="#P12"></use><use x="1010" y="-799" href="#P2"></use><use x="1142" y="-695" href="#P11"></use><use x="955" y="-255" href="#P2"></use><use x="1070" y="-140" href="#P8"></use><use x="1118" y="-20" href="#P9"></use><use x="845" y="404" href="#P11"></use><use x="1053" y="632" href="#P3"></use><use x="801" y="954" href="#P1"></use><use x="815" y="1122" href="#P11"></use><use x="931" y="1625" href="#P1"></use><use x="1021" y="1639" href="#P1"></use><use x="809" y="2265" href="#P12"></use><use x="870" y="2287" href="#P13"></use><use x="745" y="2865" href="#P10"></use><use x="805" y="2971" href="#P11"></use><use x="887" y="3260" href="#P9"></use><use x="917" y="3706" href="#P13"></use><use x="967" y="3841" href="#P12"></use><use x="1002" y="4154" href="#P8"></use><use x="1040" y="4634" href="#P6"></use><use x="1025" y="4816" href="#P10"></use><use x="1099" y="5046" href="#P13"></use><use x="1137" y="5263" href="#P11"></use><use x="1120" y="5474" href="#P5"></use><use x="1139" y="5808" href="#P12"></use><use x="1149" y="5929" href="#P3"></use><use x="1251" y="6109" href="#P13"></use><use x="1369" y="-990" href="#P11"></use><use x="1346" y="-903" href="#P10"></use><use x="1501" y="-691" href="#P4"></use><use x="1452" y="-468" href="#P2"></use><use x="1373" y="-124" href="#P1"></use><use x="1400" y="161" href="#P2"></use><use x="1177" y="380" href="#P9"></use><use x="1237" y="495" href="#P11"></use><use x="1121" y="800" href="#P9"></use><use x="1065" y="1250" href="#P4"></use><use x="1161" y="1578" href="#P13"></use><use x="1260" y="1745" href="#P13"></use><use x="1198" y="1985" href="#P2"></use><use x="1165" y="2364" href="#P13"></use><use x="1268" y="2628" href="#P12"></use><use x="1046" y="3100" href="#P1"></use><use x="1123" y="3378" href="#P7"></use><use x="1357" y="3740" href="#P6"></use><use x="1102" y="3963" href="#P2"></use><use x="1310" y="4260" href="#P5"></use><use x="1189" y="4563" href="#P7"></use><use x="1305" y="4810" href="#P12"></use><use x="1287" y="4953" href="#P13"></use><use x="1385" y="5306" href="#P11"></use><use x="1363" y="5555" href="#P2"></use><use x="1305" y="5810" href="#P11"></use><use x="1290" y="5859" href="#P8"></use><use x="1396" y="6075" href="#P4"></use><use x="1802" y="-1013" href="#P4"></use><use x="1688" y="-892" href="#P9"></use><use x="1506" y="-626" href="#P2"></use><use x="1594" y="-331" href="#P1"></use><use x="1621" y="-293" href="#P9"></use><use x="1701" y="49" href="#P5"></use><use x="1441" y="450" href="#P6"></use><use x="1666" y="691" href="#P13"></use><use x="1604" y="988" href="#P6"></use><use x="1561" y="1040" href="#P8"></use><use x="1640" y="1338" href="#P3"></use><use x="1445" y="1752" href="#P10"></use><use x="1490" y="2243" href="#P8"></use><use x="1388" y="2437" href="#P0"></use><use x="1511" y="2782" href="#P3"></use><use x="1426" y="3158" href="#P6"></use><use x="1585" y="3290" href="#P13"></use><use x="1575" y="3780" href="#P5"></use><use x="1672" y="4137" href="#P9"></use><use x="1658" y="4321" href="#P11"></use><use x="1518" y="4642" href="#P11"></use><use x="1607" y="4866" href="#P4"></use><use x="1725" y="5143" href="#P1"></use><use x="1492" y="5242" href="#P11"></use><use x="1737" y="5496" href="#P9"></use><use x="1665" y="5708" href="#P3"></use><use x="1677" y="6006" href="#P1"></use><use x="1671" y="6226" href="#P10"></use><use x="2044" y="-1060" href="#P7"></use><use x="1858" y="-864" href="#P10"></use><use x="1941" y="-583" href="#P7"></use><use x="1852" y="-443" href="#P2"></use><use x="1923" y="-319" href="#P2"></use><use x="2007" y="-87" href="#P9"></use><use x="1938" y="291" href="#P13"></use><use x="1744" y="590" href="#P2"></use><use x="1830" y="806" href="#P8"></use><use x="1825" y="1065" href="#P9"></use><use x="1927" y="1485" href="#P8"></use><use x="1690" y="1716" href="#P12"></use><use x="1892" y="2165" href="#P12"></use><use x="1895" y="2415" href="#P3"></use><use x="1817" y="2681" href="#P1"></use><use x="1804" y="3059" href="#P12"></use><use x="1764" y="3523" href="#P13"></use><use x="1948" y="3812" href="#P3"></use><use x="2015" y="4150" href="#P11"></use><use x="1779" y="4420" href="#P8"></use><use x="1985" y="4473" href="#P8"></use><use x="2015" y="4731" href="#P6"></use><use x="1828" y="5114" href="#P4"></use><use x="1998" y="5390" href="#P5"></use><use x="2012" y="5439" href="#P13"></use><use x="2018" y="5833" href="#P9"></use><use x="1945" y="5920" href="#P9"></use><use x="2011" y="6169" href="#P0"></use><use x="2284" y="-1161" href="#P9"></use><use x="2087" y="-789" href="#P0"></use><use x="2161" y="-637" href="#P3"></use><use x="2317" y="-409" href="#P2"></use><use x="2210" y="-124" href="#P11"></use><use x="2247" y="66" href="#P13"></use><use x="2168" y="301" href="#P1"></use><use x="2340" y="599" href="#P3"></use><use x="2130" y="942" href="#P9"></use><use x="2270" y="1057" href="#P10"></use><use x="2013" y="1365" href="#P6"></use><use x="2124" y="1705" href="#P0"></use><use x="1990" y="2078" href="#P0"></use><use x="2215" y="2516" href="#P9"></use><use x="2153" y="2670" href="#P5"></use><use x="1995" y="2972" href="#P13"></use><use x="2057" y="3350" href="#P11"></use><use x="2310" y="3647" href="#P8"></use><use x="2167" y="4103" href="#P0"></use><use x="2078" y="4266" href="#P4"></use><use x="2250" y="4591" href="#P13"></use><use x="2070" y="4722" href="#P10"></use><use x="2209" y="4987" href="#P13"></use><use x="2131" y="5284" href="#P9"></use><use x="2095" y="5579" href="#P0"></use><use x="2139" y="5735" href="#P6"></use><use x="2136" y="6017" href="#P6"></use><use x="2353" y="6234" href="#P0"></use><use x="2492" y="-1055" href="#P1"></use><use x="2392" y="-847" href="#P7"></use><use x="2466" y="-603" href="#P5"></use><use x="2391" y="-367" href="#P0"></use><use x="2612" y="-202" href="#P9"></use><use x="2418" y="75" href="#P12"></use><use x="2348" y="364" href="#P11"></use><use x="2396" y="462" href="#P2"></use><use x="2395" y="829" href="#P5"></use><use x="2465" y="1006" href="#P6"></use><use x="2473" y="1537" href="#P5"></use><use x="2456" y="1647" href="#P6"></use><use x="2478" y="1939" href="#P4"></use><use x="2414" y="2244" href="#P4"></use><use x="2640" y="2593" href="#P2"></use><use x="2626" y="2981" href="#P9"></use><use x="2620" y="3526" href="#P7"></use><use x="2485" y="3840" href="#P10"></use><use x="2487" y="4004" href="#P3"></use><use x="2558" y="4381" href="#P5"></use><use x="2393" y="4527" href="#P5"></use><use x="2353" y="4972" href="#P0"></use><use x="2594" y="5058" href="#P1"></use><use x="2641" y="5445" href="#P13"></use><use x="2642" y="5509" href="#P0"></use><use x="2470" y="5684" href="#P8"></use><use x="2601" y="6056" href="#P13"></use><use x="2532" y="6235" href="#P4"></use><use x="2705" y="-1129" href="#P13"></use><use x="2764" y="-916" href="#P13"></use><use x="2657" y="-784" href="#P12"></use><use x="2710" y="-393" href="#P4"></use><use x="2758" y="-256" href="#P3"></use><use x="2692" y="61" href="#P2"></use><use x="2666" y="366" href="#P11"></use><use x="2674" y="527" href="#P6"></use><use x="2684" y="816" href="#P9"></use><use x="2782" y="1112" href="#P13"></use><use x="2880" y="1296" href="#P7"></use><use x="2930" y="1836" href="#P8"></use><use x="2681" y="2148" href="#P1"></use><use x="2866" y="2569" href="#P7"></use><use x="2813" y="2610" href="#P8"></use><use x="2880" y="3244" href="#P11"></use><use x="2830" y="3446" href="#P2"></use><use x="2818" y="3822" href="#P12"></use><use x="2785" y="4119" href="#P0"></use><use x="2718" y="4368" href="#P2"></use><use x="2691" y="4668" href="#P10"></use><use x="2866" y="4921" href="#P0"></use><use x="2817" y="5146" href="#P9"></use><use x="2874" y="5357" href="#P4"></use><use x="2724" y="5598" href="#P8"></use><use x="2680" y="5719" href="#P6"></use><use x="2641" y="6044" href="#P2"></use><use x="2666" y="6152" href="#P2"></use><use x="3041" y="-1149" href="#P4"></use><use x="3059" y="-801" href="#P4"></use><use x="2994" y="-737" href="#P2"></use><use x="3069" y="-454" href="#P4"></use><use x="3110" y="-278" href="#P1"></use><use x="2973" y="99" href="#P2"></use><use x="2979" y="364" href="#P4"></use><use x="3182" y="692" href="#P3"></use><use x="3143" y="794" href="#P10"></use><use x="3262" y="1196" href="#P2"></use><use x="3210" y="1293" href="#P9"></use><use x="3249" y="1627" href="#P2"></use><use x="3046" y="1952" href="#P9"></use><use x="3214" y="2391" href="#P12"></use><use x="3204" y="2848" href="#P0"></use><use x="3029" y="3112" href="#P3"></use><use x="3181" y="3546" href="#P9"></use><use x="3079" y="3605" href="#P13"></use><use x="3306" y="3878" href="#P8"></use><use x="3127" y="4350" href="#P6"></use><use x="3125" y="4487" href="#P9"></use><use x="3072" y="4839" href="#P5"></use><use x="3026" y="5061" href="#P9"></use><use x="3226" y="5226" href="#P7"></use><use x="3132" y="5656" href="#P10"></use><use x="2955" y="5823" href="#P4"></use><use x="3079" y="5967" href="#P6"></use><use x="3000" y="6087" href="#P3"></use><use x="3295" y="-1073" href="#P4"></use><use x="3407" y="-762" href="#P3"></use><use x="3313" y="-664" href="#P8"></use><use x="3354" y="-526" href="#P3"></use><use x="3379" y="-183" href="#P10"></use><use x="3523" y="42" href="#P11"></use><use x="3383" y="436" href="#P13"></use><use x="3415" y="624" href="#P11"></use><use x="3402" y="806" href="#P12"></use><use x="3409" y="1040" href="#P11"></use><use x="3616" y="1437" href="#P13"></use><use x="3402" y="1606" href="#P1"></use><use x="3549" y="2035" href="#P3"></use><use x="3491" y="2530" href="#P8"></use><use x="3390" y="2920" href="#P1"></use><use x="3527" y="3195" href="#P11"></use><use x="3433" y="3258" href="#P2"></use><use x="3494" y="3722" href="#P10"></use><use x="3483" y="3886" href="#P10"></use><use x="3374" y="4282" href="#P5"></use><use x="3436" y="4585" href="#P2"></use><use x="3361" y="4830" href="#P12"></use><use x="3521" y="5156" href="#P13"></use><use x="3448" y="5309" href="#P8"></use><use x="3481" y="5614" href="#P13"></use><use x="3368" y="5757" href="#P6"></use><use x="3402" y="5915" href="#P2"></use><use x="3369" y="6131" href="#P9"></use><use x="3495" y="-983" href="#P8"></use><use x="3719" y="-832" href="#P7"></use><use x="3701" y="-548" href="#P2"></use><use x="3611" y="-344" href="#P7"></use><use x="3768" y="-203" href="#P4"></use><use x="3607" y="174" href="#P0"></use><use x="3692" y="247" href="#P13"></use><use x="3706" y="669" href="#P12"></use><use x="3903" y="826" href="#P3"></use><use x="3701" y="1173" href="#P13"></use><use x="3697" y="1368" href="#P10"></use><use x="3673" y="1713" href="#P0"></use><use x="3695" y="2073" href="#P6"></use><use x="3825" y="2301" href="#P5"></use><use x="3915" y="2774" href="#P7"></use><use x="3943" y="3177" href="#P10"></use><use x="3680" y="3519" href="#P7"></use><use x="3796" y="3822" href="#P13"></use><use x="3661" y="4124" href="#P4"></use><use x="3745" y="4165" href="#P9"></use><use x="3705" y="4560" href="#P8"></use><use x="3768" y="4692" href="#P13"></use><use x="3664" y="5135" href="#P12"></use><use x="3720" y="5209" href="#P3"></use><use x="3740" y="5562" href="#P12"></use><use x="3652" y="5750" href="#P4"></use><use x="3573" y="6024" href="#P6"></use><use x="3687" y="6122" href="#P10"></use><use x="3813" y="-1097" href="#P12"></use><use x="3912" y="-835" href="#P7"></use><use x="3892" y="-511" href="#P12"></use><use x="3804" y="-503" href="#P1"></use><use x="3946" y="-55" href="#P8"></use><use x="4005" y="25" href="#P11"></use><use x="4113" y="415" href="#P12"></use><use x="3972" y="546" href="#P8"></use><use x="4100" y="927" href="#P11"></use><use x="4002" y="1125" href="#P5"></use><use x="4160" y="1508" href="#P6"></use><use x="4151" y="1945" href="#P12"></use><use x="4123" y="2075" href="#P4"></use><use x="4034" y="2502" href="#P1"></use><use x="4055" y="2793" href="#P5"></use><use x="4150" y="2918" href="#P0"></use><use x="3957" y="3397" href="#P3"></use><use x="4052" y="3735" href="#P10"></use><use x="4038" y="3886" href="#P12"></use><use x="4144" y="4329" href="#P11"></use><use x="4133" y="4541" href="#P3"></use><use x="4126" y="4744" href="#P0"></use><use x="3882" y="5059" href="#P4"></use><use x="4044" y="5167" href="#P5"></use><use x="3902" y="5576" href="#P4"></use><use x="3980" y="5673" href="#P11"></use><use x="3806" y="5970" href="#P4"></use><use x="3937" y="6059" href="#P9"></use><use x="4177" y="-983" href="#P5"></use><use x="4233" y="-776" href="#P6"></use><use x="4079" y="-646" href="#P8"></use><use x="4172" y="-299" href="#P2"></use><use x="4319" y="-202" href="#P12"></use><use x="4324" y="251" href="#P6"></use><use x="4298" y="492" href="#P0"></use><use x="4439" y="624" href="#P3"></use><use x="4268" y="975" href="#P11"></use><use x="4411" y="1348" href="#P5"></use><use x="4492" y="1577" href="#P8"></use><use x="4320" y="1935" href="#P12"></use><use x="4479" y="2054" href="#P3"></use><use x="4462" y="2388" href="#P11"></use><use x="4383" y="2874" href="#P1"></use><use x="4318" y="3048" href="#P3"></use><use x="4505" y="3244" href="#P9"></use><use x="4292" y="3649" href="#P6"></use><use x="4333" y="4042" href="#P10"></use><use x="4294" y="4137" href="#P0"></use><use x="4333" y="4504" href="#P12"></use><use x="4218" y="4706" href="#P2"></use><use x="4173" y="4967" href="#P7"></use><use x="4120" y="5350" href="#P5"></use><use x="4203" y="5412" href="#P9"></use><use x="4161" y="5671" href="#P3"></use><use x="4016" y="5881" href="#P7"></use><use x="4173" y="6071" href="#P2"></use><use x="4421" y="-961" href="#P1"></use><use x="4257" y="-848" href="#P8"></use><use x="4533" y="-540" href="#P13"></use><use x="4380" y="-303" href="#P12"></use><use x="4452" y="-112" href="#P5"></use><use x="4611" y="97" href="#P5"></use><use x="4695" y="511" href="#P0"></use><use x="4676" y="586" href="#P10"></use><use x="4593" y="985" href="#P4"></use><use x="4569" y="1086" href="#P7"></use><use x="4605" y="1375" href="#P12"></use><use x="4783" y="1707" href="#P9"></use><use x="4810" y="2234" href="#P13"></use><use x="4552" y="2508" href="#P12"></use><use x="4599" y="2610" href="#P9"></use><use x="4680" y="3082" href="#P5"></use><use x="4696" y="3427" href="#P1"></use><use x="4742" y="3494" href="#P13"></use><use x="4474" y="4057" href="#P2"></use><use x="4553" y="4202" href="#P0"></use><use x="4687" y="4515" href="#P0"></use><use x="4615" y="4768" href="#P5"></use><use x="4487" y="5080" href="#P10"></use><use x="4520" y="5231" href="#P2"></use><use x="4560" y="5337" href="#P7"></use><use x="4314" y="5697" href="#P6"></use><use x="4326" y="5874" href="#P3"></use><use x="4294" y="6093" href="#P8"></use><use x="4553" y="-953" href="#P9"></use><use x="4634" y="-692" href="#P2"></use><use x="4548" y="-602" href="#P6"></use><use x="4803" y="-216" href="#P1"></use><use x="4689" y="-19" href="#P0"></use><use x="4769" y="265" href="#P8"></use><use x="4886" y="439" href="#P7"></use><use x="4845" y="770" href="#P3"></use><use x="4931" y="1084" href="#P9"></use><use x="4853" y="1162" href="#P0"></use><use x="4866" y="1643" href="#P1"></use><use x="4926" y="1869" href="#P0"></use><use x="5012" y="2066" href="#P5"></use><use x="4934" y="2458" href="#P11"></use><use x="4990" y="2808" href="#P10"></use><use x="4941" y="2929" href="#P4"></use><use x="4795" y="3385" href="#P3"></use><use x="4871" y="3550" href="#P1"></use><use x="4937" y="3963" href="#P5"></use><use x="4766" y="4172" href="#P9"></use><use x="4814" y="4368" href="#P1"></use><use x="4692" y="4702" href="#P5"></use><use x="4842" y="4973" href="#P13"></use><use x="4759" y="5067" href="#P3"></use><use x="4728" y="5284" href="#P13"></use><use x="4645" y="5518" href="#P5"></use><use x="4617" y="5893" href="#P3"></use><use x="4623" y="6029" href="#P11"></use><use x="4865" y="-780" href="#P4"></use><use x="4972" y="-608" href="#P3"></use><use x="4855" y="-487" href="#P12"></use><use x="4923" y="-235" href="#P11"></use><use x="5017" y="78" href="#P5"></use><use x="5021" y="187" href="#P7"></use><use x="5165" y="516" href="#P10"></use><use x="5216" y="808" href="#P8"></use><use x="5034" y="935" href="#P1"></use><use x="5049" y="1234" href="#P13"></use><use x="5159" y="1659" href="#P1"></use><use x="5151" y="1773" href="#P10"></use><use x="5290" y="2183" href="#P8"></use><use x="5218" y="2322" href="#P13"></use><use x="5289" y="2680" href="#P11"></use><use x="5220" y="2969" href="#P2"></use><use x="5235" y="3207" href="#P12"></use><use x="5065" y="3489" href="#P4"></use><use x="5090" y="3763" href="#P4"></use><use x="5008" y="4109" href="#P0"></use><use x="4997" y="4309" href="#P10"></use><use x="5017" y="4571" href="#P7"></use><use x="5047" y="4990" href="#P1"></use><use x="4940" y="5223" href="#P13"></use><use x="4988" y="5254" href="#P6"></use><use x="4995" y="5511" href="#P1"></use><use x="4753" y="5692" href="#P2"></use><use x="4882" y="6001" href="#P1"></use><use x="5052" y="-869" href="#P4"></use><use x="5211" y="-529" href="#P6"></use><use x="5172" y="-322" href="#P3"></use><use x="5234" y="-188" href="#P6"></use><use x="5271" y="-46" href="#P6"></use><use x="5382" y="381" href="#P12"></use><use x="5227" y="456" href="#P13"></use><use x="5386" y="709" href="#P9"></use><use x="5481" y="1076" href="#P9"></use><use x="5429" y="1200" href="#P0"></use><use x="5350" y="1682" href="#P1"></use><use x="5474" y="1795" href="#P13"></use><use x="5365" y="2253" href="#P4"></use><use x="5422" y="2533" href="#P1"></use><use x="5449" y="2787" href="#P11"></use><use x="5502" y="3083" href="#P11"></use><use x="5498" y="3288" href="#P6"></use><use x="5299" y="3508" href="#P2"></use><use x="5356" y="3723" href="#P11"></use><use x="5278" y="4247" href="#P0"></use><use x="5223" y="4334" href="#P10"></use><use x="5214" y="4674" href="#P11"></use><use x="5145" y="4804" href="#P9"></use><use x="5269" y="5165" href="#P13"></use><use x="5236" y="5377" href="#P3"></use><use x="5040" y="5477" href="#P6"></use><use x="5113" y="5772" href="#P13"></use><use x="4991" y="5868" href="#P2"></use><use x="5238" y="-761" href="#P2"></use><use x="5339" y="-610" href="#P0"></use><use x="5348" y="-292" href="#P7"></use><use x="5323" y="-128" href="#P7"></use><use x="5330" y="-37" href="#P9"></use><use x="5511" y="402" href="#P7"></use><use x="5573" y="632" href="#P3"></use><use x="5646" y="750" href="#P11"></use><use x="5573" y="983" href="#P13"></use><use x="5539" y="1181" href="#P1"></use><use x="5647" y="1626" href="#P6"></use><use x="5722" y="1766" href="#P0"></use><use x="5569" y="2057" href="#P11"></use><use x="5637" y="2365" href="#P9"></use><use x="5709" y="2671" href="#P2"></use><use x="5566" y="2959" href="#P10"></use><use x="5595" y="3376" href="#P10"></use><use x="5527" y="3456" href="#P11"></use><use x="5551" y="3945" href="#P7"></use><use x="5504" y="4004" href="#P11"></use><use x="5473" y="4308" href="#P8"></use><use x="5431" y="4493" href="#P4"></use><use x="5382" y="4808" href="#P8"></use><use x="5417" y="4967" href="#P5"></use><use x="5438" y="5224" href="#P1"></use><use x="5259" y="5561" href="#P4"></use><use x="5232" y="5673" href="#P2"></use><use x="5112" y="5842" href="#P3"></use><use x="5543" y="-598" href="#P13"></use><use x="5482" y="-482" href="#P4"></use><use x="5607" y="-373" href="#P1"></use><use x="5632" y="-113" href="#P13"></use><use x="5595" y="98" href="#P8"></use><use x="5776" y="351" href="#P0"></use><use x="5771" y="557" href="#P0"></use><use x="5788" y="776" href="#P13"></use><use x="5740" y="1172" href="#P5"></use><use x="5837" y="1422" href="#P1"></use><use x="5820" y="1487" href="#P4"></use><use x="5924" y="1867" href="#P12"></use><use x="5783" y="2212" href="#P3"></use><use x="5909" y="2570" href="#P1"></use><use x="5959" y="2737" href="#P6"></use><use x="5837" y="2864" href="#P6"></use><use x="5841" y="3213" href="#P0"></use><use x="5876" y="3625" href="#P10"></use><use x="5902" y="3903" href="#P11"></use><use x="5835" y="4142" href="#P12"></use><use x="5830" y="4402" href="#P6"></use><use x="5657" y="4666" href="#P1"></use><use x="5784" y="4800" href="#P6"></use><use x="5650" y="4976" href="#P0"></use><use x="5554" y="5196" href="#P3"></use><use x="5511" y="5468" href="#P11"></use><use x="5432" y="5574" href="#P11"></use><use x="5492" y="5815" href="#P4"></use><use x="5591" y="-679" href="#P7"></use><use x="5624" y="-549" href="#P11"></use><use x="5751" y="-265" href="#P8"></use><use x="5737" y="-155" href="#P6"></use><use x="5754" y="87" href="#P2"></use><use x="5870" y="268" href="#P3"></use><use x="5970" y="601" href="#P8"></use><use x="6074" y="966" href="#P7"></use><use x="5907" y="1072" href="#P13"></use><use x="5985" y="1269" href="#P6"></use><use x="6044" y="1641" href="#P7"></use><use x="5999" y="1760" href="#P5"></use><use x="6145" y="2052" href="#P11"></use><use x="6167" y="2346" href="#P1"></use><use x="6164" y="2601" href="#P8"></use><use x="6026" y="3006" href="#P6"></use><use x="5998" y="3221" href="#P4"></use><use x="6106" y="3617" href="#P12"></use><use x="6005" y="3654" href="#P2"></use><use x="5928" y="4142" href="#P7"></use><use x="6042" y="4343" href="#P5"></use><use x="6010" y="4497" href="#P10"></use><use x="5977" y="4660" href="#P5"></use><use x="5850" y="4954" href="#P6"></use><use x="5761" y="5123" href="#P7"></use><use x="5725" y="5304" href="#P9"></use><use x="5767" y="5579" href="#P6"></use><use x="5582" y="5736" href="#P7"></use></g></svg>